<svg width="24" height="22" viewBox="0 0 24 22" fill="none" xmlns="http://www.w3.org/2000/svg">
<path d="M11.9821 0C13.2889 0 14.3473 0.9878 14.3473 2.2066L14.3365 2.3859C15.3781 2.7731 16.3849 3.4155 17.2777 4.2669C18.3121 5.2492 18.9169 6.5516 19.1029 8.2225V14.2483L20.5321 16.5561C21.0121 17.2887 21.1657 17.9025 20.7913 18.4338C20.4481 18.9189 19.8349 19.0883 19.0033 19.0751H15.7993C15.4249 20.746 13.8385 22 11.9401 22C10.0417 22 8.45407 20.746 8.08087 19.0762H4.53367L4.46647 19.0729C3.71407 19.0135 3.15367 18.6802 3.02767 18.0389C2.94247 17.6022 3.05527 17.1336 3.34927 16.5748L4.81927 14.1768L4.82287 8.1565C4.95127 6.8255 5.49487 5.5858 6.44047 4.4484C7.24087 3.4859 8.38447 2.7775 9.62527 2.3694C9.62067 2.31523 9.61827 2.26093 9.61807 2.2066C9.61807 0.9878 10.6765 0 11.9821 0ZM14.1637 19.0762H9.71647C10.0465 19.9232 10.9165 20.5282 11.9401 20.5282C12.9625 20.5282 13.8337 19.9232 14.1637 19.0762ZM12.0985 3.4364C10.4737 3.4364 8.68687 4.1459 7.68607 5.3504C6.92047 6.27 6.49327 7.2446 6.39607 8.2214V14.3704C6.39607 14.4991 6.36007 14.6256 6.29167 14.7367L4.74247 17.2623C4.67047 17.4016 4.62247 17.5157 4.59847 17.6044H19.0153C19.1605 17.6066 19.2709 17.6011 19.3465 17.5989C19.2954 17.4992 19.2389 17.4019 19.1773 17.3074L17.6329 14.8137C17.5645 14.7009 17.5282 14.5742 17.5273 14.4452L17.5309 8.3006C17.3857 7.0224 16.9237 6.0302 16.1521 5.2954C14.9041 4.1074 13.4377 3.4364 12.0985 3.4364ZM11.9821 1.4707C11.807 1.47181 11.6373 1.52606 11.4994 1.62497C11.3615 1.72389 11.2633 1.86189 11.2201 2.0174C11.5153 1.98293 11.8081 1.9657 12.0985 1.9657C12.3113 1.9657 12.5253 1.97743 12.7405 2.0009C12.6941 1.84899 12.5949 1.71508 12.4581 1.61942C12.3213 1.52375 12.1542 1.47155 11.9821 1.4707Z" fill="#1E1E1E"/>
</svg>
