<svg width="36" height="36" viewBox="0 0 36 36" fill="none" xmlns="http://www.w3.org/2000/svg">
<rect x="0.5" y="0.5" width="35" height="35" rx="17.5" stroke="#F3E5D0"/>
<path d="M18.2445 10C18.7785 10.003 20.1146 10.016 21.5347 10.073L22.0387 10.095C23.4678 10.162 24.8958 10.278 25.6049 10.475C26.5499 10.741 27.292 11.5151 27.543 12.4972C27.943 14.0573 27.993 17.0994 27.999 17.8365L28 17.9885V18.1625C27.993 18.8996 27.943 21.9427 27.543 23.5018C27.289 24.4869 26.5459 25.262 25.6049 25.524C24.8958 25.721 23.4678 25.837 22.0387 25.904L21.5347 25.927C20.1146 25.983 18.7785 25.997 18.2445 25.999L18.0095 26H17.7545C16.6244 25.993 11.8982 25.942 10.3941 25.524C9.45007 25.258 8.70704 24.4839 8.45602 23.5018C8.056 21.9417 8.006 18.8996 8 18.1625V17.8365C8.006 17.0994 8.056 14.0563 8.45602 12.4972C8.71004 11.5121 9.45307 10.737 10.3951 10.476C11.8982 10.057 16.6254 10.006 17.7555 10H18.2445ZM15.9994 14.5003V21.5007L21.9997 18.0005L15.9994 14.5003Z" fill="#F3E5D0"/>
</svg>
